# xmcd
#
# Track frame offsets: 
#        150
#        18855
#        40290
#        61720
#        81705
#
# Disc length: 1349 seconds
#
# Revision: 1
# Processed by: cddbd v1.5.2PL0 Copyright (c) Steve Scherf et al.
# Submitted via: ExactAudioCopy v1.3
#
DISCID=37054305
DTITLE=III Frum Tha Soul - What Cha Missin' [CDM)
DYEAR=1993
DGENRE=R&B
TTITLE0=What Cha Missin' (Radio Mix)
TTITLE1=What Cha Missin' (Remix)
TTITLE2=What Cha Missin' (Without Snare)
TTITLE3=What Cha Missin' (Instrumental)
TTITLE4=What Cha Missin' (Breakdown)
EXTD=
EXTT0=
EXTT1=
EXTT2=
EXTT3=
EXTT4=
PLAYORDER=
